<svg width="230" height="56" viewBox="0 0 230 56" fill="none" xmlns="http://www.w3.org/2000/svg">
<path d="M43.441 35H39.265L38.221 29.924C37.861 28.196 37.261 26.828 36.421 25.82C35.605 24.812 34.633 24.284 33.505 24.236H29.257V35H25.189V11.312H35.557C37.261 11.312 38.701 11.636 39.877 12.284C41.053 12.908 41.917 13.724 42.469 14.732C43.045 15.716 43.333 16.724 43.333 17.756C43.333 19.124 42.853 20.42 41.893 21.644C40.957 22.844 39.577 23.636 37.753 24.02C38.881 24.38 39.841 24.992 40.633 25.856C41.425 26.72 41.905 27.596 42.073 28.484L43.441 35ZM29.257 23.516H34.369C35.185 23.516 35.965 23.264 36.709 22.76C37.477 22.256 38.089 21.56 38.545 20.672C39.025 19.784 39.265 18.8 39.265 17.72C39.265 16.664 39.025 15.704 38.545 14.84C38.089 13.952 37.477 13.268 36.709 12.788C35.965 12.284 35.185 12.032 34.369 12.032H29.257V23.516ZM64.7645 26.756H51.8405C51.8405 28.076 51.9245 29.276 52.0925 30.356C52.2605 31.436 52.6805 32.396 53.3525 33.236C54.0485 34.052 55.0805 34.46 56.4485 34.46C57.8165 34.46 59.1005 34.136 60.3005 33.488C61.5005 32.84 62.4725 31.94 63.2165 30.788L63.8645 31.22C63.0245 32.468 61.9445 33.452 60.6245 34.172C59.3285 34.868 57.9365 35.216 56.4485 35.216C55.2725 35.216 54.1445 35 53.0645 34.568C52.0085 34.112 51.0485 33.464 50.1845 32.624C49.3445 31.76 48.6965 30.8 48.2405 29.744C47.8085 28.664 47.5925 27.536 47.5925 26.36C47.5925 25.184 47.8085 24.056 48.2405 22.976C48.6725 21.896 49.2845 20.936 50.0765 20.096C50.9165 19.256 51.8645 18.62 52.9205 18.188C53.9765 17.732 55.0925 17.504 56.2685 17.504C57.4445 17.504 58.5485 17.732 59.5805 18.188C60.6365 18.62 61.5605 19.256 62.3525 20.096C63.1205 20.936 63.7085 21.896 64.1165 22.976C64.5485 24.056 64.7645 25.184 64.7645 26.36V26.756ZM56.1605 18.26C54.8645 18.332 53.8925 18.788 53.2445 19.628C52.6205 20.468 52.2245 21.416 52.0565 22.472C51.9125 23.504 51.8405 24.68 51.8405 26H60.5165C60.4925 24.656 60.3965 23.468 60.2285 22.436C60.0845 21.404 59.6885 20.468 59.0405 19.628C58.4165 18.788 57.4565 18.332 56.1605 18.26ZM69.6676 11.312H73.7356V35H69.6676V11.312ZM96.4881 17.72V35H92.4201V33.812C90.9561 34.748 89.3601 35.216 87.6321 35.216C86.4561 35.216 85.3281 35 84.2481 34.568C83.1921 34.112 82.2321 33.464 81.3681 32.624C80.5281 31.76 79.8801 30.8 79.4241 29.744C78.9921 28.664 78.7761 27.536 78.7761 26.36C78.7761 25.184 78.9921 24.056 79.4241 22.976C79.8801 21.896 80.5281 20.936 81.3681 20.096C82.2321 19.256 83.1921 18.62 84.2481 18.188C85.3281 17.732 86.4561 17.504 87.6321 17.504C89.3601 17.504 90.9561 17.972 92.4201 18.908V17.72H96.4881ZM87.6321 34.46C89.4321 34.46 91.0281 33.944 92.4201 32.912V19.808C91.0281 18.776 89.4321 18.26 87.6321 18.26C86.1921 18.26 85.1361 18.716 84.4641 19.628C83.7921 20.516 83.3841 21.5 83.2401 22.58C83.0961 23.66 83.0241 24.92 83.0241 26.36C83.0241 27.8 83.0961 29.06 83.2401 30.14C83.3841 31.22 83.7921 32.216 84.4641 33.128C85.1361 34.016 86.1921 34.46 87.6321 34.46ZM112.362 34.1C111.858 34.244 111.39 34.316 110.958 34.316C109.926 34.316 109.17 33.932 108.69 33.164C108.234 32.396 108.006 31.424 108.006 30.248V18.836H111.39V18.08H108.006V11.312H103.938V18.08H100.302V18.836H103.938V28.592C103.938 29.72 104.046 30.68 104.262 31.472C104.502 32.264 104.874 32.924 105.378 33.452C105.954 34.076 106.722 34.532 107.682 34.82C108.666 35.084 109.506 35.216 110.202 35.216C110.634 35.216 111.09 35.168 111.57 35.072C112.074 35 112.41 34.916 112.578 34.82L112.362 34.1ZM121.339 17.72H117.271V35H121.339V17.72ZM117.271 13.148C117.271 13.7 117.463 14.18 117.847 14.588C118.255 14.972 118.747 15.164 119.323 15.164C119.899 15.164 120.379 14.972 120.763 14.588C121.171 14.18 121.375 13.7 121.375 13.148C121.375 12.596 121.171 12.116 120.763 11.708C120.355 11.3 119.875 11.096 119.323 11.096C118.771 11.096 118.291 11.3 117.883 11.708C117.475 12.116 117.271 12.596 117.271 13.148ZM141.603 20.096C142.443 20.936 143.079 21.896 143.511 22.976C143.967 24.056 144.195 25.184 144.195 26.36C144.195 27.536 143.967 28.664 143.511 29.744C143.079 30.8 142.443 31.76 141.603 32.624C140.763 33.464 139.803 34.112 138.723 34.568C137.643 35 136.515 35.216 135.339 35.216C134.163 35.216 133.035 35 131.955 34.568C130.899 34.112 129.939 33.464 129.075 32.624C128.235 31.76 127.587 30.8 127.131 29.744C126.699 28.664 126.483 27.536 126.483 26.36C126.483 25.184 126.699 24.056 127.131 22.976C127.587 21.896 128.235 20.936 129.075 20.096C129.939 19.256 130.899 18.62 131.955 18.188C133.035 17.732 134.163 17.504 135.339 17.504C136.515 17.504 137.643 17.732 138.723 18.188C139.803 18.62 140.763 19.256 141.603 20.096ZM135.339 34.46C136.779 34.46 137.835 34.016 138.507 33.128C139.179 32.216 139.587 31.22 139.731 30.14C139.875 29.06 139.947 27.8 139.947 26.36C139.947 24.92 139.875 23.66 139.731 22.58C139.587 21.5 139.179 20.516 138.507 19.628C137.835 18.716 136.779 18.26 135.339 18.26C133.899 18.26 132.843 18.716 132.171 19.628C131.499 20.516 131.091 21.5 130.947 22.58C130.803 23.66 130.731 24.92 130.731 26.36C130.731 27.8 130.803 29.06 130.947 30.14C131.091 31.22 131.499 32.216 132.171 33.128C132.843 34.016 133.899 34.46 135.339 34.46Z" fill="#E96D0B"/>
<path d="M78.0573 52L78.0413 44.576L74.3613 50.72H73.4333L69.7533 44.672V52H67.7693V40.8H69.4813L73.9293 48.224L78.2973 40.8H80.0093L80.0253 52H78.0573ZM86.1225 43.36C87.3812 43.36 88.3412 43.664 89.0025 44.272C89.6745 44.8693 90.0105 45.776 90.0105 46.992V52H88.1225V50.96C87.8772 51.3333 87.5252 51.6213 87.0665 51.824C86.6185 52.016 86.0745 52.112 85.4345 52.112C84.7945 52.112 84.2345 52.0053 83.7545 51.792C83.2745 51.568 82.9012 51.264 82.6345 50.88C82.3785 50.4853 82.2505 50.0427 82.2505 49.552C82.2505 48.784 82.5332 48.1707 83.0985 47.712C83.6745 47.2427 84.5759 47.008 85.8025 47.008H88.0105V46.88C88.0105 46.2827 87.8292 45.824 87.4665 45.504C87.1145 45.184 86.5865 45.024 85.8825 45.024C85.4025 45.024 84.9279 45.0987 84.4585 45.248C83.9999 45.3973 83.6105 45.6053 83.2905 45.872L82.5065 44.416C82.9545 44.0747 83.4932 43.8133 84.1225 43.632C84.7519 43.4507 85.4185 43.36 86.1225 43.36ZM85.8505 50.656C86.3519 50.656 86.7945 50.544 87.1785 50.32C87.5732 50.0853 87.8505 49.7547 88.0105 49.328V48.336H85.9465C84.7945 48.336 84.2185 48.7147 84.2185 49.472C84.2185 49.8347 84.3625 50.1227 84.6505 50.336C84.9385 50.5493 85.3385 50.656 85.8505 50.656ZM94.4813 44.704C95.0573 43.808 96.0706 43.36 97.5213 43.36V45.264C97.3506 45.232 97.1959 45.216 97.0573 45.216C96.2786 45.216 95.6706 45.4453 95.2333 45.904C94.7959 46.352 94.5773 47.0027 94.5773 47.856V52H92.5773V43.456H94.4813V44.704ZM102.706 48.336L101.218 49.744V52H99.2179V40.128H101.218V47.296L105.362 43.456H107.762L104.194 47.04L108.098 52H105.666L102.706 48.336ZM117.062 47.776C117.062 47.9147 117.052 48.112 117.03 48.368H110.326C110.444 48.9973 110.748 49.4987 111.238 49.872C111.74 50.2347 112.358 50.416 113.094 50.416C114.033 50.416 114.806 50.1067 115.414 49.488L116.486 50.72C116.102 51.1787 115.617 51.5253 115.03 51.76C114.444 51.9947 113.782 52.112 113.046 52.112C112.108 52.112 111.281 51.9253 110.566 51.552C109.852 51.1787 109.297 50.6613 108.902 50C108.518 49.328 108.326 48.5707 108.326 47.728C108.326 46.896 108.513 46.1493 108.886 45.488C109.27 44.816 109.798 44.2933 110.47 43.92C111.142 43.5467 111.9 43.36 112.742 43.36C113.574 43.36 114.316 43.5467 114.966 43.92C115.628 44.2827 116.14 44.8 116.502 45.472C116.876 46.1333 117.062 46.9013 117.062 47.776ZM112.742 44.96C112.102 44.96 111.558 45.152 111.11 45.536C110.673 45.9093 110.406 46.4107 110.31 47.04H115.158C115.073 46.4213 114.812 45.92 114.374 45.536C113.937 45.152 113.393 44.96 112.742 44.96ZM124.12 51.536C123.885 51.728 123.597 51.872 123.256 51.968C122.925 52.064 122.573 52.112 122.2 52.112C121.261 52.112 120.536 51.8667 120.024 51.376C119.512 50.8853 119.256 50.1707 119.256 49.232V45.12H117.848V43.52H119.256V41.568H121.256V43.52H123.544V45.12H121.256V49.184C121.256 49.6 121.357 49.92 121.56 50.144C121.762 50.3573 122.056 50.464 122.44 50.464C122.888 50.464 123.261 50.3467 123.56 50.112L124.12 51.536ZM125.765 43.456H127.765V52H125.765V43.456ZM126.773 42.048C126.41 42.048 126.106 41.936 125.861 41.712C125.615 41.4773 125.493 41.1893 125.493 40.848C125.493 40.5067 125.615 40.224 125.861 40C126.106 39.7653 126.41 39.648 126.773 39.648C127.135 39.648 127.439 39.76 127.685 39.984C127.93 40.1973 128.053 40.4693 128.053 40.8C128.053 41.152 127.93 41.4507 127.685 41.696C127.45 41.9307 127.146 42.048 126.773 42.048ZM135.238 43.36C136.315 43.36 137.179 43.6747 137.83 44.304C138.48 44.9333 138.806 45.8667 138.806 47.104V52H136.806V47.36C136.806 46.6133 136.63 46.0533 136.278 45.68C135.926 45.296 135.424 45.104 134.774 45.104C134.038 45.104 133.456 45.328 133.03 45.776C132.603 46.2133 132.39 46.848 132.39 47.68V52H130.39V43.456H132.294V44.56C132.624 44.1653 133.04 43.8667 133.542 43.664C134.043 43.4613 134.608 43.36 135.238 43.36ZM149.901 43.456V50.704C149.901 53.712 148.365 55.216 145.293 55.216C144.472 55.216 143.693 55.1093 142.957 54.896C142.221 54.6933 141.613 54.3947 141.133 54L142.029 52.496C142.402 52.8053 142.872 53.0507 143.437 53.232C144.013 53.424 144.594 53.52 145.181 53.52C146.12 53.52 146.808 53.3067 147.245 52.88C147.682 52.4533 147.901 51.8027 147.901 50.928V50.48C147.56 50.8533 147.144 51.136 146.653 51.328C146.162 51.52 145.624 51.616 145.037 51.616C144.226 51.616 143.49 51.4453 142.829 51.104C142.178 50.752 141.661 50.2613 141.277 49.632C140.904 49.0027 140.717 48.2827 140.717 47.472C140.717 46.6613 140.904 45.9467 141.277 45.328C141.661 44.6987 142.178 44.2133 142.829 43.872C143.49 43.5307 144.226 43.36 145.037 43.36C145.656 43.36 146.216 43.4613 146.717 43.664C147.229 43.8667 147.656 44.176 147.997 44.592V43.456H149.901ZM145.341 49.92C146.098 49.92 146.717 49.696 147.197 49.248C147.688 48.7893 147.933 48.1973 147.933 47.472C147.933 46.7573 147.688 46.176 147.197 45.728C146.717 45.28 146.098 45.056 145.341 45.056C144.573 45.056 143.944 45.28 143.453 45.728C142.973 46.176 142.733 46.7573 142.733 47.472C142.733 48.1973 142.973 48.7893 143.453 49.248C143.944 49.696 144.573 49.92 145.341 49.92ZM157.144 40.8H162.04C163.235 40.8 164.296 41.0347 165.224 41.504C166.152 41.9627 166.872 42.6187 167.384 43.472C167.896 44.3147 168.152 45.2907 168.152 46.4C168.152 47.5093 167.896 48.4907 167.384 49.344C166.872 50.1867 166.152 50.8427 165.224 51.312C164.296 51.7707 163.235 52 162.04 52H157.144V40.8ZM161.944 50.24C162.766 50.24 163.486 50.0853 164.104 49.776C164.734 49.456 165.214 49.008 165.544 48.432C165.886 47.8453 166.056 47.168 166.056 46.4C166.056 45.632 165.886 44.96 165.544 44.384C165.214 43.7973 164.734 43.3493 164.104 43.04C163.486 42.72 162.766 42.56 161.944 42.56H159.224V50.24H161.944ZM170.171 43.456H172.171V52H170.171V43.456ZM171.179 42.048C170.816 42.048 170.512 41.936 170.267 41.712C170.022 41.4773 169.899 41.1893 169.899 40.848C169.899 40.5067 170.022 40.224 170.267 40C170.512 39.7653 170.816 39.648 171.179 39.648C171.542 39.648 171.846 39.76 172.091 39.984C172.336 40.1973 172.459 40.4693 172.459 40.8C172.459 41.152 172.336 41.4507 172.091 41.696C171.856 41.9307 171.552 42.048 171.179 42.048ZM183.276 43.456V50.704C183.276 53.712 181.74 55.216 178.668 55.216C177.847 55.216 177.068 55.1093 176.332 54.896C175.596 54.6933 174.988 54.3947 174.508 54L175.404 52.496C175.777 52.8053 176.247 53.0507 176.812 53.232C177.388 53.424 177.969 53.52 178.556 53.52C179.495 53.52 180.183 53.3067 180.62 52.88C181.057 52.4533 181.276 51.8027 181.276 50.928V50.48C180.935 50.8533 180.519 51.136 180.028 51.328C179.537 51.52 178.999 51.616 178.412 51.616C177.601 51.616 176.865 51.4453 176.204 51.104C175.553 50.752 175.036 50.2613 174.652 49.632C174.279 49.0027 174.092 48.2827 174.092 47.472C174.092 46.6613 174.279 45.9467 174.652 45.328C175.036 44.6987 175.553 44.2133 176.204 43.872C176.865 43.5307 177.601 43.36 178.412 43.36C179.031 43.36 179.591 43.4613 180.092 43.664C180.604 43.8667 181.031 44.176 181.372 44.592V43.456H183.276ZM178.716 49.92C179.473 49.92 180.092 49.696 180.572 49.248C181.063 48.7893 181.308 48.1973 181.308 47.472C181.308 46.7573 181.063 46.176 180.572 45.728C180.092 45.28 179.473 45.056 178.716 45.056C177.948 45.056 177.319 45.28 176.828 45.728C176.348 46.176 176.108 46.7573 176.108 47.472C176.108 48.1973 176.348 48.7893 176.828 49.248C177.319 49.696 177.948 49.92 178.716 49.92ZM185.905 43.456H187.905V52H185.905V43.456ZM186.913 42.048C186.551 42.048 186.247 41.936 186.001 41.712C185.756 41.4773 185.633 41.1893 185.633 40.848C185.633 40.5067 185.756 40.224 186.001 40C186.247 39.7653 186.551 39.648 186.913 39.648C187.276 39.648 187.58 39.76 187.825 39.984C188.071 40.1973 188.193 40.4693 188.193 40.8C188.193 41.152 188.071 41.4507 187.825 41.696C187.591 41.9307 187.287 42.048 186.913 42.048ZM195.666 51.536C195.432 51.728 195.144 51.872 194.802 51.968C194.472 52.064 194.12 52.112 193.746 52.112C192.808 52.112 192.082 51.8667 191.57 51.376C191.058 50.8853 190.802 50.1707 190.802 49.232V45.12H189.394V43.52H190.802V41.568H192.802V43.52H195.09V45.12H192.802V49.184C192.802 49.6 192.904 49.92 193.106 50.144C193.309 50.3573 193.602 50.464 193.986 50.464C194.434 50.464 194.808 50.3467 195.106 50.112L195.666 51.536ZM200.576 43.36C201.834 43.36 202.794 43.664 203.456 44.272C204.128 44.8693 204.464 45.776 204.464 46.992V52H202.576V50.96C202.33 51.3333 201.978 51.6213 201.52 51.824C201.072 52.016 200.528 52.112 199.888 52.112C199.248 52.112 198.688 52.0053 198.208 51.792C197.728 51.568 197.354 51.264 197.088 50.88C196.832 50.4853 196.704 50.0427 196.704 49.552C196.704 48.784 196.986 48.1707 197.552 47.712C198.128 47.2427 199.029 47.008 200.256 47.008H202.464V46.88C202.464 46.2827 202.282 45.824 201.92 45.504C201.568 45.184 201.04 45.024 200.336 45.024C199.856 45.024 199.381 45.0987 198.912 45.248C198.453 45.3973 198.064 45.6053 197.744 45.872L196.96 44.416C197.408 44.0747 197.946 43.8133 198.576 43.632C199.205 43.4507 199.872 43.36 200.576 43.36ZM200.304 50.656C200.805 50.656 201.248 50.544 201.632 50.32C202.026 50.0853 202.304 49.7547 202.464 49.328V48.336H200.4C199.248 48.336 198.672 48.7147 198.672 49.472C198.672 49.8347 198.816 50.1227 199.104 50.336C199.392 50.5493 199.792 50.656 200.304 50.656ZM207.03 40.128H209.03V52H207.03V40.128Z" fill="#0C6980"/>
</svg>
